<svg width="25" height="25" viewBox="0 0 25 25" fill="none" xmlns="http://www.w3.org/2000/svg">
<path d="M8.05017 8.10061L8.04387 7.10063C8.03886 6.30499 8.35012 5.53996 8.90917 4.97382C9.46823 4.40767 10.2293 4.0868 11.0249 4.08179L18.0248 4.03771C18.8204 4.03269 19.5854 4.34395 20.1516 4.90301C20.7177 5.46206 21.0386 6.22312 21.0436 7.01875L21.1066 17.0186C21.1116 17.8142 20.8003 18.5792 20.2413 19.1454C19.6822 19.7115 18.9212 20.0324 18.1255 20.0374L11.1257 20.0815C10.3301 20.0865 9.56502 19.7752 8.99887 19.2162C8.43273 18.6571 8.11186 17.8961 8.10685 17.1004L8.10055 16.1005M13.0501 8.06912L17.0752 12.0438L13.0501 8.06912ZM17.0752 12.0438L13.1005 16.069L17.0752 12.0438ZM17.0752 12.0438L3.07546 12.132L17.0752 12.0438Z" stroke="white" stroke-width="2" stroke-linecap="round" stroke-linejoin="round"/>
</svg>
